# xmcd
#
# Track frame offsets:
#	150
#	18132
#	31798
#	48653
#	63906
#	76675
#	91264
#	108112
#	118782
#	139977
#	156004
#	167983
#	182936
#	199045
#	217548
#	233204
#	251019
#	263327
#	280447
#	301548
#	315096
#
# Disc length: 4441 seconds
#
# Revision: 0
# Processed by: cddbd v1.4PL0 Copyright (c) Steve Scherf et al.
# Submitted via: EasyCDDAExtractor 4.6.9.1
#
DISCID=04115715
DTITLE=Emmylou Harris - Portraits - Disc 2
DYEAR=1996
DGENRE=Country
TTITLE0=Hello Stranger
TTITLE1=Everytime You Leave (w - Don Everly)
TTITLE2=Beneath Still Waters
TTITLE3=Blue Kentucky Girl
TTITLE4=To Daddy
TTITLE5=Evangeline
TTITLE6=Save The Last Dance For Me (w-Dolly Parton)
TTITLE7=Mister Sandman (w-Linda Ronstadt and Dolly Parton)
TTITLE8=And I Love You So
TTITLE9=If I Needed You (w-Don Williams)
TTITLE10=Roses In The Snow
TTITLE11=The Boxer
TTITLE12=Wayfaring Stranger
TTITLE13=Millworker
TTITLE14=Dimming Of The Day
TTITLE15=Heaven Ain't Ready For You Yet
TTITLE16=Juanita - (w-Sheryl Crow-Gram Parsons Tribute)
TTITLE17=Born To Run
TTITLE18=The Price You Pay
TTITLE19=Sweet Chariot
TTITLE20=That Lovin' You Feelin' Again (w-Roy Orbison)
EXTD=
EXTT0=
EXTT1=
EXTT2=
EXTT3=
EXTT4=
EXTT5=
EXTT6=
EXTT7=
EXTT8=
EXTT9=
EXTT10=
EXTT11=
EXTT12=
EXTT13=
EXTT14=
EXTT15=
EXTT16=
EXTT17=
EXTT18=
EXTT19=
EXTT20=
PLAYORDER=
